HIERARCHY
ROOT hip
{
	OFFSET 0.000000 0.000000 0.000000 
	CHANNELS 6 Xposition Yposition Zposition Xrotation Zrotation Yrotation
	JOINT abdomen
	{
		OFFSET 0.000000 3.402643 0.000000 
		CHANNELS 3 Xrotation Zrotation Yrotation
		JOINT chest
		{
			OFFSET 0.000000 8.438565 -0.680529 
			CHANNELS 3 Xrotation Zrotation Yrotation
			JOINT neck
			{
				OFFSET 0.000000 10.207942 -0.272212 
				CHANNELS 3 Xrotation Zrotation Yrotation
				JOINT head
				{
					OFFSET 0.000000 3.130431 0.000000 
					CHANNELS 3 Xrotation Zrotation Yrotation
					End Site
					{
						OFFSET 0.000000 3.130435 0.000000 
					}
				}
			}
			JOINT lCollar
			{
				OFFSET 3.470700 6.669187 -0.816635 
				CHANNELS 3 Yrotation Zrotation Xrotation
				JOINT lShldr
				{
					OFFSET 3.198488 0.000000 0.000000 
					CHANNELS 3 Zrotation Yrotation Xrotation
					JOINT lForeArm
					{
						OFFSET 10.139888 0.000000 0.000000 
						CHANNELS 3 Yrotation Zrotation Xrotation
						JOINT lHand
						{
							OFFSET 8.370511 0.000000 0.000000 
							CHANNELS 3 Zrotation Yrotation Xrotation
							End Site
							{
								OFFSET 4.083176 0.000000 0.000000 
							}
						}
					}
				}
			}
			JOINT rCollar
			{
				OFFSET -3.470700 6.669187 -0.816635 
				CHANNELS 3 Yrotation Zrotation Xrotation
				JOINT rShldr
				{
					OFFSET -3.198488 0.000000 0.000000 
					CHANNELS 3 Zrotation Yrotation Xrotation
					JOINT rForeArm
					{
						OFFSET -10.139888 0.000000 0.000000 
						CHANNELS 3 Yrotation Zrotation Xrotation
						JOINT rHand
						{
							OFFSET -8.370511 0.000000 0.000000 
							CHANNELS 3 Zrotation Yrotation Xrotation
							End Site
							{
								OFFSET -4.083176 0.000000 0.000000 
							}
						}
					}
				}
			}
		}
	}
	JOINT lThigh
	{
		OFFSET 5.308129 -1.633274 1.361059 
		CHANNELS 3 Xrotation Zrotation Yrotation
		JOINT lShin
		{
			OFFSET -2.041588 -20.007561 0.000000 
			CHANNELS 3 Xrotation Zrotation Yrotation
			JOINT lFoot
			{
				OFFSET 0.000000 -19.190928 -1.224953 
				CHANNELS 3 Xrotation Yrotation Zrotation
				End Site
				{
					OFFSET 0.000000 -2.449906 4.627600 
				}
			}
		}
	}
	JOINT rThigh
	{
		OFFSET -5.308129 -1.633274 1.361059 
		CHANNELS 3 Xrotation Zrotation Yrotation
		JOINT rShin
		{
			OFFSET 2.041588 -20.007561 0.000000 
			CHANNELS 3 Xrotation Zrotation Yrotation
			JOINT rFoot
			{
				OFFSET 0.000000 -19.190928 -1.224953 
				CHANNELS 3 Xrotation Yrotation Zrotation
				End Site
				{
					OFFSET 0.000000 -2.449906 4.627600 
				}
			}
		}
	}
}
MOTION
Frames: 20
Frame Time: 0.016667
-29.496647 59.782528 42.749004 -2.646760 13.072500 -140.119995 -9.855950 4.836120 1.254680 14.899800 5.053520 0.799149 23.694500 -0.950968 -4.047970 12.830600 4.527400 -1.630500 2.000000 -2.000000 0.000000 113.880997 -124.695999 3.659510 63.291500 -0.276297 0.122182 0.053735 0.043513 -117.527000 -2.000000 2.000000 0.000000 -120.101997 80.778801 -18.085300 -57.217300 0.288875 0.114946 -0.054407 -0.001695 -136.315994 -22.888096 2.491322 1.303329 26.647280 2.471923 2.139390 -4.814792 0.717865 -0.138404 -56.239254 8.410025 -0.570661 79.472969 1.098743 -4.908918 -32.179825 -0.804595 2.293418 
-29.350945 59.157478 43.240601 -2.625880 12.994600 -141.184998 -9.962060 4.091320 2.108240 14.881000 3.653920 1.297380 23.857401 -0.619488 -4.774240 12.856800 4.295390 -1.908230 2.000000 -2.000000 0.000000 114.044998 -122.717003 4.961290 63.604000 -0.275630 0.122515 0.053092 0.041652 -118.230003 -2.000000 2.000000 0.000000 -97.255402 80.090897 4.972610 -55.146999 0.292979 0.112197 -0.054424 0.002872 -137.947006 -23.991230 2.779215 2.616027 28.739059 2.401103 2.309311 -7.999686 -0.455502 -0.338938 -58.470707 8.780804 0.341593 82.027565 1.355562 -4.975906 -30.990498 0.117855 2.980822 
-29.189291 58.795097 43.629402 -2.413530 11.708600 -141.447006 -9.960140 4.103590 2.223720 14.542600 4.419000 1.234770 23.681700 -1.090470 -4.195460 12.789000 4.354230 -1.640770 2.000000 -2.000000 0.000000 113.012001 -121.614998 5.626400 63.340401 -0.276193 0.122234 0.053536 0.042946 -117.741997 -2.000000 2.000000 0.000000 -94.018799 78.827103 7.454570 -52.637199 0.297817 0.108668 -0.054399 -0.000328 -136.804993 -23.506758 2.034732 4.984974 29.312847 2.364782 2.367812 -9.390875 -0.605692 -0.320759 -59.720039 7.762722 1.128386 84.710762 1.621454 -5.032015 -28.049818 1.438216 3.629411 
-29.120541 58.781864 43.963943 -2.493220 11.698200 -140.309998 -10.097600 3.616340 1.932070 14.596200 3.797780 1.146980 24.581100 -0.546524 -3.848900 13.291700 4.568870 -1.497790 2.000000 -2.000000 0.000000 111.816002 -119.752998 6.946400 61.621601 -0.279830 0.120340 0.053862 0.043874 -117.390999 -2.000000 2.000000 0.000000 -86.298798 78.230202 15.306400 -50.703602 0.301436 0.105806 -0.054409 0.001805 -137.565994 -23.436960 1.491242 3.547045 28.282778 2.353169 2.316534 -9.845111 -2.079326 -0.806175 -61.286510 5.850036 0.281960 86.117424 1.781284 -5.062472 -25.038490 3.604026 4.475189 
-29.184458 58.808846 44.296917 -2.523020 12.732200 -139.462006 -10.014700 3.077130 1.972400 14.809300 2.419430 1.299750 24.336700 0.024339 -4.356170 13.144400 4.542140 -1.729710 2.000000 -2.000000 0.000000 110.113998 -118.155998 9.214560 59.990700 -0.283227 0.118442 0.054750 0.046316 -116.462997 -2.000000 2.000000 0.000000 -70.059303 77.654701 33.811100 -49.541500 0.303564 0.104028 -0.054800 0.011340 -140.975006 -23.513390 1.976915 4.441683 26.350273 2.319428 2.209329 -10.138193 -2.837870 -0.920644 -62.865845 4.306097 -1.604821 86.561600 1.856100 -5.084368 -22.988304 5.261365 4.996679 
-29.114586 58.952396 44.462387 -2.672060 12.623400 -139.294006 -9.953420 2.801280 1.292080 15.109000 3.130360 0.883707 24.829500 -0.026240 -3.534370 13.500500 4.758390 -1.381030 2.000000 -2.000000 0.000000 111.064003 -117.478996 7.730650 58.174301 -0.286945 0.116216 0.054731 0.046264 -116.482002 -2.000000 2.000000 0.000000 -74.379097 77.682800 28.421101 -47.354000 0.307470 0.100566 -0.054399 0.000575 -137.126999 -22.235748 1.347139 4.038291 23.146927 2.293336 2.011864 -9.623065 -1.977030 -0.698348 -63.152298 3.529416 -1.725465 87.447441 1.954611 -5.104836 -22.447796 4.460872 4.480458 
-29.071674 59.191540 44.590790 -3.084330 11.936300 -139.210999 -10.493400 1.918930 1.502810 14.291300 2.417130 0.955645 25.232901 0.581202 -4.002500 13.557900 4.670780 -1.556700 2.000000 -2.000000 0.000000 109.291000 -116.745003 11.091700 55.928200 -0.291442 0.113301 0.055185 0.047467 -116.023003 -2.000000 2.000000 0.000000 -61.666901 78.468498 40.703701 -46.465302 0.309019 0.099117 -0.054402 -0.001039 -136.550995 -20.918705 0.286950 3.697922 20.264627 2.190082 1.854978 -7.627760 -1.171422 -0.439537 -62.395863 2.224777 -1.643376 89.844955 2.143014 -5.100824 -23.289028 1.808302 3.187100 
-29.037186 59.487999 44.728966 -3.127080 12.998900 -138.272003 -10.748400 1.675930 1.317810 14.196500 1.679060 0.926234 25.191999 1.038420 -3.715680 13.578900 4.757140 -1.413610 2.000000 -2.000000 0.000000 110.482002 -116.591003 12.234700 55.430199 -0.292424 0.112631 0.054579 0.045854 -116.639000 -2.000000 2.000000 0.000000 -54.991901 79.141701 45.995300 -45.879398 0.310027 0.098149 -0.054520 -0.006260 -134.684998 -21.695175 0.818345 2.511876 19.357021 2.119551 1.813380 -5.658782 -1.448208 -0.441080 -61.520618 1.450305 -2.958606 92.317749 2.425444 -5.130217 -22.083181 -0.259310 1.959599 
-28.852613 59.716225 44.712234 -3.299220 13.854800 -138.289001 -11.130600 1.639970 2.014450 14.032000 1.115770 1.298200 25.423800 2.267470 -4.293570 13.750400 5.052830 -1.767960 2.000000 -2.000000 0.000000 107.019997 -115.469002 17.060499 53.760300 -0.295672 0.110323 0.054684 0.046136 -116.530998 -2.000000 2.000000 0.000000 -31.964300 79.386703 70.443703 -48.271900 0.305847 0.102037 -0.054468 -0.004730 -135.231995 -22.507809 1.782943 3.027417 18.970266 2.066506 1.822944 -3.930399 -2.428903 -0.425242 -60.010376 1.972007 -3.234309 94.747581 2.614749 -5.109586 -18.523970 -1.773131 1.101563 
-28.695789 59.892002 44.666512 -2.398540 15.211900 -138.138000 -11.396600 1.796400 1.880370 13.894800 1.299760 1.215430 24.992500 1.459370 -3.995160 13.430100 4.643870 -1.503460 2.000000 -2.000000 0.000000 108.072998 -115.438004 16.113300 52.246601 -0.298556 0.108150 0.054972 0.046905 -116.237999 -2.000000 2.000000 0.000000 -9.134360 82.226402 92.616699 -51.514198 0.299931 0.107021 -0.054880 -0.002664 -132.477997 -23.750879 3.756400 4.450613 20.291336 2.135695 1.884401 -3.138149 -3.408214 -0.408776 -57.065182 3.606012 -3.861835 95.020424 2.597612 -5.082000 -192.026581 -177.850769 -179.159195 
-28.527506 59.859119 44.621235 -1.209500 16.090401 -137.139999 -11.561700 1.443090 1.871050 13.740100 0.339381 1.287560 25.416100 3.302270 -4.203920 13.694500 5.217480 -1.745330 2.000000 -2.000000 0.000000 108.281998 -114.757004 17.345301 51.143101 -0.300622 0.106518 0.055391 0.048003 -115.818001 -2.000000 2.000000 0.000000 34.471600 81.484200 134.817001 -57.217300 0.288875 0.114946 -0.054554 -0.007080 -134.393005 -25.376072 5.133935 2.956337 23.378544 2.243857 2.036771 -3.459647 -3.273415 -0.437025 -52.843891 4.638700 -5.693108 92.501419 2.225664 -5.020072 -0.211389 -3.737511 0.863536 
-28.398991 59.597485 44.631569 -0.898131 16.892599 -136.449997 -11.735100 1.927810 1.403490 13.953800 1.144700 1.019870 24.937599 3.179050 -3.650950 13.465700 5.587620 -1.598620 2.000000 -2.000000 0.000000 107.758003 -114.307999 17.130600 50.244598 -0.302281 0.105161 0.055708 0.048819 -115.505997 -2.000000 2.000000 0.000000 -117.192001 100.279999 -17.502001 -59.961498 0.283287 0.118359 -0.054899 -0.002910 -132.391006 -28.169785 6.430874 4.030451 27.570524 2.207793 2.335915 -3.906802 -6.229380 -0.823192 -48.746189 5.558048 -5.592459 87.694138 1.635162 -4.932385 10.975397 -2.250902 1.239199 
-28.086691 59.181892 44.514626 -0.010216 17.080099 -135.794006 -11.756500 1.852630 2.000310 13.856700 0.824410 1.328950 25.436600 4.968910 -3.738300 13.870400 6.196130 -1.764860 2.000000 -2.000000 0.000000 104.417999 -112.862000 21.312599 49.277802 -0.304042 0.103671 0.056697 0.051280 -114.558998 -2.000000 2.000000 0.000000 -110.663002 104.782997 -9.002170 -64.541496 0.273618 0.123447 -0.054399 -0.000492 -136.746002 -30.491238 7.438523 3.410488 32.796688 2.161204 2.654131 -5.331478 -7.015991 -1.087712 -43.132202 7.360251 -4.558911 80.380272 0.864321 -4.755381 18.320459 -8.168520 2.880130 
-27.747540 58.616344 44.350052 0.327507 17.411800 -134.520004 -11.964000 2.538680 2.068050 13.873100 1.949560 1.285400 25.760099 6.252300 -3.901830 14.121900 6.893040 -2.033150 2.000000 -2.000000 0.000000 103.686996 -111.967003 23.110701 49.424301 -0.303777 0.103898 0.055648 0.048666 -115.564003 -2.000000 2.000000 0.000000 -106.931000 109.331001 -1.976800 -68.184097 0.265657 0.126931 -0.054970 0.013521 -141.755997 -33.434044 8.222781 2.885616 37.673286 1.981032 2.958055 -7.118438 -8.901912 -1.635302 -37.627029 8.584394 -4.640099 71.340065 0.010144 -4.512581 21.021042 -12.833976 4.744758 
-27.389183 57.751373 44.316689 1.803470 16.574301 -133.313004 -11.922500 1.594550 1.943110 13.397900 0.668576 1.302760 25.656401 6.975640 -4.332930 13.994100 6.896010 -2.254640 2.000000 -2.000000 0.000000 104.821999 -110.777000 23.570999 48.867699 -0.304782 0.103029 0.055628 0.048615 -115.584000 -2.000000 2.000000 0.000000 -102.482002 113.669998 3.340400 -70.010300 0.261586 0.128486 -0.055257 0.016570 -142.848999 -34.886223 9.279074 2.949257 43.297489 1.816809 3.266662 -9.546444 -11.495173 -2.554633 -30.390295 10.056670 -4.252761 61.105824 -0.837238 -4.101653 16.541607 -17.119120 4.709366 
-27.000492 56.671162 44.389149 1.597850 16.351400 -132.440002 -12.169100 0.354493 1.633410 13.427400 -0.581408 1.186000 25.375200 7.384140 -4.475270 13.754400 6.737760 -2.261820 2.000000 -2.000000 0.000000 105.873001 -109.419998 23.963301 48.828602 -0.304852 0.102968 0.055798 0.049048 -115.417999 -2.000000 2.000000 0.000000 -97.335999 117.809998 7.075560 -69.561096 0.262592 0.128116 -0.054617 0.008365 -139.910004 -37.818157 9.273457 3.649083 48.121643 1.520678 3.555851 -13.435524 -12.203268 -3.570887 -25.427094 10.331144 -4.809947 50.585472 -1.543646 -3.597878 18.494844 -14.360950 4.971803 
-26.544849 55.730114 44.497215 2.483210 16.342899 -131.115005 -12.337500 0.540242 1.385760 13.046400 -0.639003 1.090090 26.466200 8.534260 -4.315610 14.499900 7.441390 -2.365000 2.000000 -2.000000 0.000000 102.579002 -107.978996 25.957600 48.320801 -0.305760 0.102167 0.056801 0.051533 -114.460999 -2.000000 2.000000 0.000000 -96.570297 121.896004 8.817640 -67.910698 0.266262 0.126687 -0.054412 0.002079 -137.664001 -40.595367 9.894593 2.165554 53.303650 1.221105 3.825052 -14.917788 -14.076285 -4.512204 -20.112200 11.572414 -4.909953 39.063198 -2.135240 -2.957601 16.370005 -17.354334 5.163080 
-25.959005 54.694359 44.674149 2.520250 16.840099 -130.302002 -12.750400 -0.365001 1.203490 12.836600 -2.099950 1.085200 26.422199 9.848630 -4.228500 14.599700 7.851870 -2.382110 2.000000 -2.000000 0.000000 109.505997 -106.184998 22.531099 48.965302 -0.304606 0.103183 0.054579 0.045854 -116.639000 -2.000000 2.000000 0.000000 -93.618896 125.896004 11.371500 -65.518097 0.271506 0.124430 -0.054402 0.001040 -137.292999 -44.741177 10.017509 -0.135088 58.613159 0.846404 4.092840 -15.211182 -16.489578 -5.406272 -16.186462 12.744922 -2.743004 27.485628 -2.366832 -2.266373 23.207588 -15.667426 6.982621 
-25.312946 53.606430 45.001728 1.378730 17.016800 -130.335999 -13.204200 -1.227100 1.113560 12.907500 -3.252120 1.061370 26.481199 10.805700 -4.190160 14.731300 8.309200 -2.464110 2.000000 -2.000000 0.000000 109.061996 -103.764999 23.744699 48.301201 -0.305795 0.102136 0.053049 0.041523 -118.278999 -2.000000 2.000000 0.000000 -93.027397 130.442001 13.613200 -63.623600 0.275588 0.122489 -0.054610 0.008228 -139.860992 -48.761497 8.744098 -1.542179 62.901642 0.478805 4.279748 -17.811123 -14.219861 -5.426917 -13.530541 12.238443 -1.235883 17.559650 -2.137321 -1.667030 23.646235 -15.142685 6.696084 
-24.596567 52.530727 45.325932 0.570720 16.620300 -130.899994 -13.358000 -0.976248 1.287210 13.022500 -2.042770 1.012130 25.360399 10.870000 -5.029650 14.334500 8.243640 -2.877630 2.000000 -2.000000 0.000000 109.524002 -101.075996 22.263300 46.904800 -0.308256 0.099889 0.052490 0.039835 -118.914001 -2.000000 2.000000 0.000000 -92.830597 134.511993 16.662800 -62.109901 0.278802 0.120842 -0.055046 0.014393 -142.067993 -51.738655 8.223603 -2.019923 66.935272 0.128325 4.463186 -18.950365 -14.919026 -6.006951 -11.456074 11.352131 -1.163573 10.602026 -1.648186 -1.271009 26.078609 -10.570128 5.485910 
